Coordinates
version=1
nRows=8
nColumns=40
inDegrees=yes

Units are S.I. units (second, meters, Newtons, ...)
Angles are in degrees.

endheader
time	pelvis_tilt	pelvis_list	pelvis_rotation	pelvis_tx	pelvis_ty	pelvis_tz	hip_flexion_r	hip_adduction_r	hip_rotation_r	knee_angle_r	knee_angle_r_beta	ankle_angle_r	subtalar_angle_r	mtp_angle_r	hip_flexion_l	hip_adduction_l	hip_rotation_l	knee_angle_l	knee_angle_l_beta	ankle_angle_l	subtalar_angle_l	mtp_angle_l	lumbar_extension	lumbar_bending	lumbar_rotation	arm_flex_r	arm_add_r	arm_rot_r	elbow_flex_r	pro_sup_r	wrist_flex_r	wrist_dev_r	arm_flex_l	arm_add_l	arm_rot_l	elbow_flex_l	pro_sup_l	wrist_flex_l	wrist_dev_l
      2.50500000	     -5.81293154	     -5.65293512	     -0.37363057	      0.96480907	      0.93020763	      0.48844908	     10.32224232	      3.98400404	    -18.35952219	     12.49006994	     12.49006994	     10.56439532	      5.96833961	     -4.36257668	     37.13765172	    -13.62695422	     -1.50648414	     57.91829156	     57.91829156	     12.37785239	    -18.69957923	     14.63142791	    -12.68551407	      8.61085798	      3.51398076	     31.45212166	    -13.90029365	     -3.37587489	     46.12680761	     45.56052317	      0.00000000	      0.00000000	     -6.58559676	     -5.72334952	     -2.75022719	     31.23576430	     46.24039687	      0.00000000	      0.00000000
      2.51657143	     -5.86695625	     -5.61697982	     -0.10224905	      0.96325193	      0.92994356	      0.48846667	      9.61200323	      4.05850978	    -18.26874164	     12.02634111	     12.02634111	     10.79163853	      5.71605984	     -4.41509933	     37.98887979	    -13.15475546	     -1.15113183	     55.35053612	     55.35053612	     12.09410733	    -18.58432215	     14.89089195	    -12.76242577	      8.54731610	      3.22500861	     33.50997971	    -13.58578983	     -3.28978907	     48.13171973	     45.49430945	      0.00000000	      0.00000000	     -7.69662924	     -5.67716173	     -2.57390221	     30.33636156	     46.19276548	      0.00000000	      0.00000000
      2.52814286	     -5.92370266	     -5.67630758	      0.19877111	      0.96176424	      0.92953264	      0.48837630	      8.85516120	      4.26333137	    -18.07147676	     11.43824825	     11.43824825	     10.75147499	      5.18314892	     -5.02636795	     38.71203174	    -12.73681353	     -0.73065348	     52.52906119	     52.52906119	     11.36616684	    -18.36533918	     13.99388388	    -12.89519351	      8.63194700	      3.61875780	     34.02658608	    -14.38163735	     -2.33699778	     53.66862281	     45.26378979	      0.00000000	      0.00000000	     -8.15075907	     -5.65366518	     -1.88411363	     28.70800694	     46.06117753	      0.00000000	      0.00000000
      2.53971429	     -5.99993236	     -5.68208184	      0.53025199	      0.96035204	      0.92903751	      0.48806200	      8.15516372	      4.34646393	    -18.11406902	     10.98775130	     10.98775130	     11.01949336	      5.10021376	     -5.12665728	     39.32328570	    -12.16034666	     -0.22448520	     49.52632815	     49.52632815	     10.89196248	    -17.97549354	     14.00518660	    -12.94827497	      8.63061125	      3.20902984	     35.90534836	    -13.98221328	     -2.35105375	     55.93687589	     45.19803207	      0.00000000	      0.00000000	     -9.14418124	     -5.65330270	     -1.59778597	     27.89602934	     45.99516817	      0.00000000	      0.00000000
      2.55128571	     -6.07310737	     -5.69302851	      0.85301148	      0.95911648	      0.92844161	      0.48764918	      7.40658109	      4.43573088	    -18.18009793	     10.46749018	     10.46749018	     11.20151260	      5.07469628	     -5.48129270	     39.69627700	    -11.62070632	      0.18776120	     46.20386384	     46.20386384	      9.85548988	    -17.40053905	     12.24501782	    -13.01243231	      8.66956041	      3.55471356	     36.57596453	    -14.59428592	     -2.19954912	     60.85421149	     45.04453922	      0.00000000	      0.00000000	     -9.62238417	     -5.74177670	     -0.80882352	     26.94815570	     45.84874271	      0.00000000	      0.00000000
      2.56285714	     -6.17423099	     -5.62455644	      1.15074461	      0.95792858	      0.92788005	      0.48718956	      6.71239702	      4.42666590	    -18.23077339	     10.01002582	     10.01002582	     11.44867582	      5.08959722	     -5.50012378	     39.98183947	    -11.02333960	      0.53077101	     42.83520482	     42.83520482	      9.47184439	    -16.27550449	     12.41644609	    -13.02331549	      8.51034525	      3.13551915	     38.41072626	    -14.11430574	     -2.26648914	     62.81524686	     44.99208254	      0.00000000	      0.00000000	    -10.51554371	     -5.75008547	     -0.60432696	     26.33426885	     45.79925571	      0.00000000	      0.00000000
      2.57442857	     -6.23572873	     -5.80012278	      1.48997679	      0.95717433	      0.92697834	      0.48658098	      5.88569362	      4.67717366	    -18.56141294	      9.44868244	      9.44868244	     11.77062859	      5.47074575	     -5.66926078	     40.10476099	    -10.67667639	      0.92033461	     39.35169527	     39.35169527	      8.59244206	    -15.04941628	     10.41222932	    -13.03135774	      8.78666929	      3.55012954	     38.77722375	    -14.66050494	     -2.41882455	     68.19540504	     44.84820733	      0.00000000	      0.00000000	    -10.97817831	     -5.89834663	      0.29650803	     25.67875097	     45.63724672	      0.00000000	      0.00000000
      2.58600000	     -6.32100984	     -5.81413610	      1.78884518	      0.95648557	      0.92614638	      0.48596548	      5.12881001	      4.75211128	    -18.66969890	      8.98278610	      8.98278610	     12.11304536	      5.62451990	     -5.70686407	     40.10774718	    -10.25831307	      1.01359455	     35.88880014	     35.88880014	      8.40883552	    -13.27747129	     10.54017170	    -12.92912395	      8.77983281	      3.09607542	     40.36801269	    -14.10090197	     -2.47629724	     70.25211015	     44.79451008	      0.00000000	      0.00000000	    -11.78495689	     -5.93935589	      0.52292980	     25.16819596	     45.58571533	      0.00000000	      0.00000000
